<?xml version="1.0" encoding="UTF-8"?>
<!DOCTYPE svg PUBLIC "-//W3C//DTD SVG 1.1//EN" "http://www.w3.org/Graphics/SVG/1.1/DTD/svg11.dtd">
<!-- Creator: CorelDRAW -->
<svg xmlns="http://www.w3.org/2000/svg" xml:space="preserve" width="100px" height="100px" style="shape-rendering:geometricPrecision; text-rendering:geometricPrecision; image-rendering:optimizeQuality; fill-rule:evenodd; clip-rule:evenodd"
viewBox="0 0 100 100"
 xmlns:xlink="http://www.w3.org/1999/xlink">
 <defs>
  <style type="text/css">
   <![CDATA[
    .fil0 {fill:#242530}
    .fil3 {fill:white}
    .fil2 {fill:#242530;fill-rule:nonzero}
    .fil1 {fill:white;fill-rule:nonzero}
   ]]>
  </style>
 </defs>
 <g id="Layer_x0020_1">
  <metadata id="CorelCorpID_0Corel-Layer"/>
  <rect class="fil0" x="-0.134647" y="0.0885834" width="100.709" height="101.148"/>
  <path class="fil1" d="M56.5044 84.6763c-6.61541,0 -12.5552,-1.39844 -17.8171,-4.19413 -5.26185,-2.79687 -9.39692,-6.691 -12.404,-11.6824 -3.00711,-4.99256 -4.51067,-10.6454 -4.51067,-16.9608 0,-6.31422 1.50356,-11.9682 4.51067,-16.9596 3.00711,-4.99138 7.14218,-8.8855 12.404,-11.6824 5.26185,-2.79687 11.2017,-4.19531 17.8171,-4.19531 5.77327,0 10.9761,1.02284 15.606,3.06735 4.63114,2.04569 8.48038,4.99256 11.5477,8.84062l-11.367 10.2851c-4.08901,-4.93232 -9.05086,-7.3973 -14.8844,-7.3973 -3.42877,0 -6.48076,0.751187 -9.15716,2.25474 -2.6764,1.50356 -4.75161,3.62365 -6.22446,6.36029 -1.47403,2.73664 -2.20986,5.87839 -2.20986,9.42645 0,3.54924 0.735833,6.691 2.20986,9.42763 1.47285,2.73664 3.54806,4.85673 6.22446,6.36029 2.6764,1.50356 5.72839,2.25474 9.15716,2.25474 5.83351,0 10.7954,-2.46616 14.8844,-7.3973l11.367 10.2839c-3.06735,3.84924 -6.91659,6.79612 -11.5477,8.84062 -4.62996,2.04569 -9.83275,3.06735 -15.606,3.06735z"/>
  <path class="fil2" d="M51.3547 84.8971c-6.61541,0 -12.5552,-1.39844 -17.8171,-4.19413 -5.26185,-2.79687 -9.39692,-6.691 -12.404,-11.6824 -3.00711,-4.99256 -4.51067,-10.6454 -4.51067,-16.9608 0,-6.31422 1.50356,-11.9682 4.51067,-16.9596 3.00711,-4.99138 7.14218,-8.8855 12.404,-11.6824 5.26185,-2.79687 11.2017,-4.19531 17.8171,-4.19531 5.77327,0 10.9761,1.02284 15.606,3.06735 4.63114,2.04569 8.48038,4.99256 11.5477,8.84062l-11.367 10.2851c-4.08901,-4.93232 -9.05086,-7.3973 -14.8844,-7.3973 -3.42877,0 -6.48076,0.751187 -9.15716,2.25474 -2.6764,1.50356 -4.75161,3.62365 -6.22446,6.36029 -1.47403,2.73664 -2.20986,5.87839 -2.20986,9.42645 0,3.54924 0.735833,6.691 2.20986,9.42763 1.47285,2.73664 3.54806,4.85673 6.22446,6.36029 2.6764,1.50356 5.72839,2.25474 9.15716,2.25474 5.83351,0 10.7954,-2.46616 14.8844,-7.3973l11.367 10.2839c-3.06735,3.84924 -6.91659,6.79612 -11.5477,8.84062 -4.62996,2.04569 -9.83275,3.06735 -15.606,3.06735z"/>
  <path class="fil1" d="M48.461 84.7542c-6.61541,0 -12.5552,-1.39844 -17.8171,-4.19413 -5.26185,-2.79687 -9.39692,-6.691 -12.404,-11.6824 -3.00711,-4.99256 -4.51067,-10.6454 -4.51067,-16.9608 0,-6.31422 1.50356,-11.9682 4.51067,-16.9596 3.00711,-4.99138 7.14218,-8.8855 12.404,-11.6824 5.26185,-2.79687 11.2017,-4.19531 17.8171,-4.19531 5.77327,0 10.9761,1.02284 15.606,3.06735 4.63114,2.04569 8.48038,4.99256 11.5477,8.84062l-11.367 10.2851c-4.08901,-4.93232 -9.05086,-7.3973 -14.8844,-7.3973 -3.42877,0 -6.48076,0.751187 -9.15716,2.25474 -2.6764,1.50356 -4.75161,3.62365 -6.22446,6.36029 -1.47403,2.73664 -2.20986,5.87839 -2.20986,9.42645 0,3.54924 0.735833,6.691 2.20986,9.42763 1.47285,2.73664 3.54806,4.85673 6.22446,6.36029 2.6764,1.50356 5.72839,2.25474 9.15716,2.25474 5.83351,0 10.7954,-2.46616 14.8844,-7.3973l11.367 10.2839c-3.06735,3.84924 -6.91659,6.79612 -11.5477,8.84062 -4.62996,2.04569 -9.83275,3.06735 -15.606,3.06735z"/>
  <circle class="fil3" cx="80.1254" cy="51.7669" r="5.41067"/>
 </g>
</svg>
